<?xml version="1.0" standalone="no"?>
<!DOCTYPE svg PUBLIC "-//W3C//DTD SVG 20010904//EN"
 "http://www.w3.org/TR/2001/REC-SVG-20010904/DTD/svg10.dtd">
<svg version="1.0" xmlns="http://www.w3.org/2000/svg"
 width="200.000000pt" height="200.000000pt" viewBox="0 0 200.000000 200.000000"
 preserveAspectRatio="xMidYMid meet">
<metadata>
Created by potrace 1.14, written by Peter Selinger 2001-2017
</metadata>
<g transform="translate(0.000000,200.000000) scale(0.100000,-0.100000)"
fill="#000000" stroke="none">
<path d="M1605 1513 c-11 -3 -26 -10 -33 -16 -11 -9 -11 -13 3 -23 16 -12 16
-15 -6 -43 -15 -18 -34 -30 -49 -31 -14 0 -35 -3 -47 -6 -28 -8 -32 20 -6 34
27 16 9 44 -24 36 -67 -16 -80 -36 -33 -53 38 -13 38 -22 -1 -44 -31 -17 -34
-17 -122 5 -65 17 -91 28 -95 41 -6 22 -9 21 -56 -6 -46 -26 -63 -55 -25 -42
65 23 243 -10 237 -44 -5 -23 -37 -26 -53 -5 -11 16 -17 16 -39 6 -14 -6 -26
-19 -26 -27 0 -13 9 -15 51 -9 48 6 51 6 41 -11 -6 -12 -39 -26 -90 -40 -78
-21 -81 -21 -96 -3 -23 26 -49 22 -98 -15 -52 -40 -70 -80 -46 -103 24 -24 73
-9 121 39 34 34 52 43 116 58 81 19 95 17 88 -12 -3 -11 0 -19 8 -19 7 0 18
-6 24 -14 9 -10 -13 -34 -104 -115 -63 -56 -128 -118 -144 -137 -19 -20 -40
-34 -54 -34 -54 0 -126 -31 -176 -76 l-51 -46 -25 54 c-28 60 -32 105 -11 133
18 25 104 21 158 -6 21 -11 38 -17 38 -14 0 2 -22 16 -50 30 l-50 25 0 105 0
105 -65 0 -65 0 2 -30 c1 -16 8 -32 15 -34 25 -10 13 -96 -13 -96 -11 0 -14
28 -14 145 0 122 2 145 15 145 11 0 15 -12 15 -45 l0 -45 56 0 56 0 -4 57 c-4
45 -10 61 -31 79 -36 31 -103 40 -150 21 -57 -25 -67 -55 -67 -214 0 -157 12
-191 72 -213 30 -11 33 -16 34 -54 0 -25 14 -72 33 -113 32 -68 32 -72 17
-101 -46 -90 9 -157 123 -150 52 3 60 0 105 -35 63 -48 144 -87 195 -94 33 -5
44 -1 66 22 25 24 27 31 20 78 -11 78 -10 126 4 192 l13 60 43 -110 c40 -105
44 -110 73 -113 30 -3 31 -2 42 55 7 32 22 106 35 166 l23 107 -33 0 -33 0
-17 -92 c-10 -51 -21 -97 -25 -101 -4 -4 -24 37 -45 92 -37 101 -38 101 -71
101 -19 0 -34 -2 -34 -4 0 -11 -32 -163 -37 -176 -3 -8 -7 -24 -8 -35 -1 -11
-6 -41 -10 -67 -7 -46 -7 -48 17 -48 13 0 29 5 36 12 9 9 12 4 12 -25 0 -47
-28 -77 -73 -77 -36 0 -134 45 -180 82 l-27 23 55 42 c30 24 55 47 55 52 0 6
-17 15 -37 20 -33 9 -40 8 -63 -13 -23 -22 -62 -46 -74 -46 -3 0 -17 16 -32
35 -24 32 -25 38 -14 65 16 39 70 86 109 95 36 8 71 -9 71 -34 0 -17 4 -18 48
-9 53 12 62 20 54 52 -7 29 -22 47 -50 57 l-23 9 20 26 c12 15 72 74 133 131
106 97 115 104 147 99 18 -3 36 -7 38 -10 12 -11 -11 -47 -41 -66 -39 -24 -49
-51 -30 -78 18 -27 45 -32 82 -16 43 18 52 57 22 89 -36 38 -22 68 40 84 56
15 69 9 112 -52 20 -27 20 -29 2 -48 -25 -27 -24 -91 0 -118 26 -28 86 -45
130 -37 50 10 85 43 93 88 5 33 2 41 -30 73 -32 32 -40 35 -90 35 -53 0 -57 2
-91 42 -40 47 -42 51 -22 67 19 16 66 -6 66 -30 0 -30 58 -40 80 -14 20 24 -3
42 -60 47 -28 3 -53 8 -56 11 -3 3 2 19 10 36 20 37 20 81 2 107 -17 22 -4 44
24 44 45 0 66 24 31 35 -24 7 -51 -3 -51 -20 0 -23 -20 -28 -60 -15 l-39 13
27 33 c15 19 36 34 48 34 11 0 29 6 39 14 18 13 18 14 -3 25 -21 11 -33 12
-67 4z"/>
<path d="M120 1382 c-53 -26 -60 -50 -60 -205 0 -158 10 -190 65 -213 70 -29
147 -5 171 52 19 46 19 272 0 318 -25 59 -108 82 -176 48z m80 -207 c0 -122
-2 -145 -15 -145 -13 0 -15 23 -15 145 0 122 2 145 15 145 13 0 15 -23 15
-145z"/>
<path d="M350 1175 l0 -215 45 0 44 0 3 88 3 87 24 -87 24 -88 48 0 49 0 0
215 0 215 -45 0 -45 0 -1 -92 0 -93 -30 93 -30 92 -44 0 -45 0 0 -215z"/>
<path d="M1857 1233 c-13 -12 -7 -32 12 -38 23 -7 51 3 51 20 0 20 -48 34 -63
18z"/>
<path d="M1773 1223 c9 -2 23 -2 30 0 6 3 -1 5 -18 5 -16 0 -22 -2 -12 -5z"/>
<path d="M1222 1154 c-25 -17 -29 -39 -7 -47 21 -9 60 26 52 46 -8 21 -17 21
-45 1z"/>
<path d="M1624 768 c-31 -57 -70 -126 -85 -154 -36 -64 -36 -74 -1 -74 23 0
33 8 51 40 l23 41 61 -3 62 -3 5 -35 c4 -31 8 -35 35 -35 35 0 35 -14 5 178
l-22 147 -39 0 c-38 0 -38 0 -95 -102z m95 -60 c1 -38 1 -38 -40 -38 -22 0
-39 3 -37 8 2 4 17 33 33 65 29 57 30 58 36 30 4 -15 7 -45 8 -65z"/>
</g>
</svg>
